HIERARCHY
ROOT Hip
{
  OFFSET 0.000000 0.000000 0.000000
  CHANNELS 6 Xposition Yposition Zposition Zrotation Xrotation Yrotation
  JOINT RHip
  {
    OFFSET 0.000000 0.000000 0.000000
    CHANNELS 3 Xposition Yposition Zposition
    End Site
    {
      OFFSET 0.000000 0.100000 0.000000
    }
  }
  JOINT RKnee
  {
    OFFSET 0.000000 0.000000 0.000000
    CHANNELS 3 Xposition Yposition Zposition
    End Site
    {
      OFFSET 0.000000 0.100000 0.000000
    }
  }
  JOINT RFoot
  {
    OFFSET 0.000000 0.000000 0.000000
    CHANNELS 3 Xposition Yposition Zposition
    End Site
    {
      OFFSET 0.000000 0.100000 0.000000
    }
  }
  JOINT LHip
  {
    OFFSET 0.000000 0.000000 0.000000
    CHANNELS 3 Xposition Yposition Zposition
    End Site
    {
      OFFSET 0.000000 0.100000 0.000000
    }
  }
  JOINT LKnee
  {
    OFFSET 0.000000 0.000000 0.000000
    CHANNELS 3 Xposition Yposition Zposition
    End Site
    {
      OFFSET 0.000000 0.100000 0.000000
    }
  }
  JOINT LFoot
  {
    OFFSET 0.000000 0.000000 0.000000
    CHANNELS 3 Xposition Yposition Zposition
    End Site
    {
      OFFSET 0.000000 0.100000 0.000000
    }
  }
  JOINT Spine
  {
    OFFSET 0.000000 0.000000 0.000000
    CHANNELS 3 Xposition Yposition Zposition
    End Site
    {
      OFFSET 0.000000 0.100000 0.000000
    }
  }
  JOINT Thorax
  {
    OFFSET 0.000000 0.000000 0.000000
    CHANNELS 3 Xposition Yposition Zposition
    End Site
    {
      OFFSET 0.000000 0.100000 0.000000
    }
  }
  JOINT Nose
  {
    OFFSET 0.000000 0.000000 0.000000
    CHANNELS 3 Xposition Yposition Zposition
    End Site
    {
      OFFSET 0.000000 0.100000 0.000000
    }
  }
  JOINT Head
  {
    OFFSET 0.000000 0.000000 0.000000
    CHANNELS 3 Xposition Yposition Zposition
    End Site
    {
      OFFSET 0.000000 0.100000 0.000000
    }
  }
  JOINT LShoulder
  {
    OFFSET 0.000000 0.000000 0.000000
    CHANNELS 3 Xposition Yposition Zposition
    End Site
    {
      OFFSET 0.000000 0.100000 0.000000
    }
  }
  JOINT LElbow
  {
    OFFSET 0.000000 0.000000 0.000000
    CHANNELS 3 Xposition Yposition Zposition
    End Site
    {
      OFFSET 0.000000 0.100000 0.000000
    }
  }
  JOINT LWrist
  {
    OFFSET 0.000000 0.000000 0.000000
    CHANNELS 3 Xposition Yposition Zposition
    End Site
    {
      OFFSET 0.000000 0.100000 0.000000
    }
  }
  JOINT RShoulder
  {
    OFFSET 0.000000 0.000000 0.000000
    CHANNELS 3 Xposition Yposition Zposition
    End Site
    {
      OFFSET 0.000000 0.100000 0.000000
    }
  }
  JOINT RElbow
  {
    OFFSET 0.000000 0.000000 0.000000
    CHANNELS 3 Xposition Yposition Zposition
    End Site
    {
      OFFSET 0.000000 0.100000 0.000000
    }
  }
  JOINT RWrist
  {
    OFFSET 0.000000 0.000000 0.000000
    CHANNELS 3 Xposition Yposition Zposition
    End Site
    {
      OFFSET 0.000000 0.100000 0.000000
    }
  }
}
MOTION
Frames: 11
Frame Time: 0.033333
0.142658 0.982404 0.000076 0.000000 0.000000 0.000000 0.069515 -0.015322 -0.087424 -0.010061 -0.468009 -0.111692 0.039586 -0.971719 0.002582 -0.069512 0.015338 0.087306 -0.167711 -0.426028 0.068897 -0.186019 -0.860529 0.311106 -0.124585 0.228343 -0.020714 -0.276584 0.477011 -0.027459 -0.427886 0.586217 0.068745 -0.315092 0.637195 0.035895 -0.224644 0.463231 0.088958 -0.007738 0.299670 0.205474 -0.104693 0.069096 0.294533 -0.283175 0.390836 -0.140979 -0.309813 0.081826 -0.118250 -0.343982 -0.155121 0.044453
0.137704 0.984258 0.000076 0.000000 0.000000 0.000000 0.069328 -0.015259 -0.088046 -0.009903 -0.469191 -0.111433 0.039173 -0.972928 -0.000093 -0.069325 0.015276 0.087928 -0.167902 -0.427305 0.074159 -0.186108 -0.862856 0.312893 -0.124895 0.228248 -0.020481 -0.276852 0.477502 -0.025973 -0.429256 0.587111 0.070670 -0.317457 0.638371 0.038350 -0.225330 0.463198 0.090417 -0.008313 0.296647 0.205151 -0.103559 0.063425 0.295143 -0.282250 0.392034 -0.139483 -0.303388 0.082992 -0.116975 -0.330483 -0.153513 0.045622
0.132248 0.986277 0.000075 0.000000 0.000000 0.000000 0.069150 -0.014947 -0.088611 -0.009167 -0.470228 -0.112084 0.039768 -0.973589 -0.003606 -0.069147 0.014964 0.088495 -0.168169 -0.428463 0.077387 -0.185614 -0.864680 0.313919 -0.124937 0.228100 -0.019975 -0.276460 0.477802 -0.024390 -0.429843 0.588094 0.072722 -0.319472 0.639562 0.041348 -0.225704 0.462961 0.091964 -0.009620 0.293324 0.205306 -0.102590 0.058300 0.295703 -0.280441 0.393203 -0.137819 -0.296202 0.084126 -0.117011 -0.316685 -0.152209 0.045203
0.126725 0.988036 0.000074 0.000000 0.000000 0.000000 0.069001 -0.014484 -0.088873 -0.007901 -0.471162 -0.112308 0.041243 -0.973922 -0.006525 -0.068998 0.014501 0.088758 -0.168667 -0.429579 0.079150 -0.184791 -0.866202 0.314761 -0.124761 0.227962 -0.019115 -0.275463 0.478076 -0.022612 -0.429741 0.589443 0.074833 -0.321187 0.640904 0.044884 -0.225710 0.462658 0.093745 -0.011269 0.289376 0.205775 -0.101790 0.053473 0.296501 -0.277924 0.394393 -0.136020 -0.288425 0.085063 -0.117695 -0.302762 -0.151007 0.043927
0.121320 0.989277 0.000073 0.000000 0.000000 0.000000 0.068857 -0.013987 -0.088945 -0.006425 -0.472056 -0.111286 0.043000 -0.974257 -0.008388 -0.068854 0.014004 0.088831 -0.169290 -0.430870 0.080181 -0.183792 -0.867744 0.315739 -0.124622 0.227967 -0.017720 -0.274094 0.478628 -0.020229 -0.429267 0.591427 0.077057 -0.322300 0.642650 0.048788 -0.225460 0.462541 0.096261 -0.013070 0.285003 0.206724 -0.100977 0.048832 0.298436 -0.275073 0.395913 -0.133898 -0.280449 0.086104 -0.117987 -0.289249 -0.149607 0.042789
0.115604 0.990006 0.000073 0.000000 0.000000 0.000000 0.068636 -0.013530 -0.089119 -0.005216 -0.473047 -0.108853 0.044415 -0.974884 -0.008743 -0.068634 0.013546 0.089006 -0.169968 -0.432601 0.081173 -0.182755 -0.869657 0.317205 -0.124673 0.228141 -0.016253 -0.272573 0.479542 -0.017893 -0.428574 0.593861 0.078938 -0.322760 0.644788 0.052221 -0.225030 0.462631 0.098876 -0.015193 0.280759 0.207966 -0.100535 0.044358 0.301627 -0.272219 0.397885 -0.132125 -0.272719 0.087485 -0.118087 -0.276774 -0.148017 0.041393
0.109586 0.990519 0.000072 0.000000 0.000000 0.000000 0.068425 -0.013140 -0.089388 -0.004496 -0.474036 -0.105385 0.045397 -0.975597 -0.006751 -0.068423 0.013156 0.089276 -0.170599 -0.434585 0.081729 -0.181490 -0.871885 0.318358 -0.124786 0.228442 -0.015434 -0.270973 0.480589 -0.016611 -0.427563 0.596207 0.080104 -0.322922 0.646898 0.054574 -0.224417 0.462729 0.100389 -0.017285 0.277505 0.208733 -0.101091 0.040639 0.304520 -0.269493 0.399982 -0.131377 -0.265808 0.089067 -0.118540 -0.265765 -0.146338 0.039386
0.103562 0.991116 0.000072 0.000000 0.000000 0.000000 0.068357 -0.012801 -0.089508 -0.004019 -0.474593 -0.101781 0.046266 -0.975880 -0.002486 -0.068355 0.012817 0.089396 -0.170755 -0.436323 0.080702 -0.179542 -0.873892 0.317534 -0.124708 0.228885 -0.015267 -0.269208 0.481627 -0.016096 -0.425967 0.598306 0.081099 -0.322803 0.648708 0.056547 -0.223535 0.462821 0.100862 -0.018709 0.275499 0.208669 -0.102620 0.037957 0.305487 -0.266791 0.401922 -0.131113 -0.259998 0.090636 -0.118988 -0.256143 -0.144440 0.037862
0.097754 0.991820 0.000072 0.000000 0.000000 0.000000 0.068324 -0.012466 -0.089507 -0.003576 -0.474576 -0.098681 0.047256 -0.975607 0.003254 -0.068322 0.012482 0.089396 -0.170297 -0.437606 0.078537 -0.176895 -0.875339 0.315130 -0.124308 0.229441 -0.015521 -0.267276 0.482600 -0.015730 -0.423810 0.600253 0.082034 -0.322030 0.650189 0.058719 -0.222396 0.462997 0.101037 -0.019509 0.274188 0.208061 -0.104871 0.035648 0.304547 -0.264043 0.403696 -0.130870 -0.255090 0.092123 -0.119081 -0.247598 -0.142516 0.037051
0.092416 0.992451 0.000071 0.000000 0.000000 0.000000 0.068325 -0.012180 -0.089593 -0.003137 -0.474359 -0.096192 0.048584 -0.975032 0.009702 -0.068324 0.012197 0.089482 -0.169553 -0.438476 0.076462 -0.173750 -0.876389 0.312487 -0.123526 0.230028 -0.016092 -0.265124 0.483491 -0.015674 -0.421141 0.602223 0.082074 -0.320543 0.651403 0.060601 -0.221143 0.463215 0.101149 -0.020355 0.272725 0.207421 -0.107710 0.032592 0.302446 -0.261053 0.405399 -0.131150 -0.250742 0.093640 -0.119253 -0.240068 -0.141071 0.036091
0.087444 0.992776 0.000071 0.000000 0.000000 0.000000 0.068643 -0.012039 -0.089827 -0.002567 -0.474285 -0.094799 0.050265 -0.974244 0.015747 -0.068641 0.012055 0.089717 -0.168842 -0.438949 0.074385 -0.170185 -0.876972 0.309748 -0.122471 0.230601 -0.016736 -0.262673 0.484344 -0.016180 -0.417778 0.604470 0.080676 -0.318628 0.652420 0.061805 -0.220111 0.463391 0.101273 -0.022481 0.270326 0.207397 -0.111240 0.028141 0.300103 -0.257547 0.407145 -0.132476 -0.246620 0.095240 -0.120636 -0.233878 -0.140178 0.034434
